<svg xmlns="http://www.w3.org/2000/svg" width="1366" height="657" style="cursor: move;"><g transform="translate(41.64716329676298,-66.86788120903293) scale(1.1360292647866912)"><path class="link" marker-end="" d="M523,258.5, 703,178.5" style="stroke-width: 0.8; stroke-opacity: 0.63; stroke: rgb(80, 80, 80);"></path><path class="link" marker-end="" d="M523,258.5, 703,218.5" style="stroke-width: 0.8; stroke-opacity: 0.63; stroke: rgb(80, 80, 80);"></path><path class="link" marker-end="" d="M523,258.5, 703,258.5" style="stroke-width: 0.8; stroke-opacity: 0.63; stroke: rgb(80, 80, 80);"></path><path class="link" marker-end="" d="M523,258.5, 703,298.5" style="stroke-width: 0.8; stroke-opacity: 0.63; stroke: rgb(80, 80, 80);"></path><path class="link" marker-end="" d="M523,258.5, 703,338.5" style="stroke-width: 0.8; stroke-opacity: 0.63; stroke: rgb(80, 80, 80);"></path><path class="link" marker-end="" d="M523,258.5, 703,378.5" style="stroke-width: 0.8; stroke-opacity: 0.63; stroke: rgb(80, 80, 80);"></path><path class="link" marker-end="" d="M523,258.5, 703,418.5" style="stroke-width: 0.8; stroke-opacity: 0.63; stroke: rgb(80, 80, 80);"></path><path class="link" marker-end="" d="M523,258.5, 703,458.5" style="stroke-width: 0.8; stroke-opacity: 0.63; stroke: rgb(80, 80, 80);"></path><path class="link" marker-end="" d="M523,298.5, 703,178.5" style="stroke-width: 0.8; stroke-opacity: 0.63; stroke: rgb(80, 80, 80);"></path><path class="link" marker-end="" d="M523,298.5, 703,218.5" style="stroke-width: 0.8; stroke-opacity: 0.63; stroke: rgb(80, 80, 80);"></path><path class="link" marker-end="" d="M523,298.5, 703,258.5" style="stroke-width: 0.8; stroke-opacity: 0.63; stroke: rgb(80, 80, 80);"></path><path class="link" marker-end="" d="M523,298.5, 703,298.5" style="stroke-width: 0.8; stroke-opacity: 0.63; stroke: rgb(80, 80, 80);"></path><path class="link" marker-end="" d="M523,298.5, 703,338.5" style="stroke-width: 0.8; stroke-opacity: 0.63; stroke: rgb(80, 80, 80);"></path><path class="link" marker-end="" d="M523,298.5, 703,378.5" style="stroke-width: 0.8; stroke-opacity: 0.63; stroke: rgb(80, 80, 80);"></path><path class="link" marker-end="" d="M523,298.5, 703,418.5" style="stroke-width: 0.8; stroke-opacity: 0.63; stroke: rgb(80, 80, 80);"></path><path class="link" marker-end="" d="M523,298.5, 703,458.5" style="stroke-width: 0.8; stroke-opacity: 0.63; stroke: rgb(80, 80, 80);"></path><path class="link" marker-end="" d="M523,338.5, 703,178.5" style="stroke-width: 0.8; stroke-opacity: 0.63; stroke: rgb(80, 80, 80);"></path><path class="link" marker-end="" d="M523,338.5, 703,218.5" style="stroke-width: 0.8; stroke-opacity: 0.63; stroke: rgb(80, 80, 80);"></path><path class="link" marker-end="" d="M523,338.5, 703,258.5" style="stroke-width: 0.8; stroke-opacity: 0.63; stroke: rgb(80, 80, 80);"></path><path class="link" marker-end="" d="M523,338.5, 703,298.5" style="stroke-width: 0.8; stroke-opacity: 0.63; stroke: rgb(80, 80, 80);"></path><path class="link" marker-end="" d="M523,338.5, 703,338.5" style="stroke-width: 0.8; stroke-opacity: 0.63; stroke: rgb(80, 80, 80);"></path><path class="link" marker-end="" d="M523,338.5, 703,378.5" style="stroke-width: 0.8; stroke-opacity: 0.63; stroke: rgb(80, 80, 80);"></path><path class="link" marker-end="" d="M523,338.5, 703,418.5" style="stroke-width: 0.8; stroke-opacity: 0.63; stroke: rgb(80, 80, 80);"></path><path class="link" marker-end="" d="M523,338.5, 703,458.5" style="stroke-width: 0.8; stroke-opacity: 0.63; stroke: rgb(80, 80, 80);"></path><path class="link" marker-end="" d="M523,378.5, 703,178.5" style="stroke-width: 0.8; stroke-opacity: 0.63; stroke: rgb(80, 80, 80);"></path><path class="link" marker-end="" d="M523,378.5, 703,218.5" style="stroke-width: 0.8; stroke-opacity: 0.63; stroke: rgb(80, 80, 80);"></path><path class="link" marker-end="" d="M523,378.5, 703,258.5" style="stroke-width: 0.8; stroke-opacity: 0.63; stroke: rgb(80, 80, 80);"></path><path class="link" marker-end="" d="M523,378.5, 703,298.5" style="stroke-width: 0.8; stroke-opacity: 0.63; stroke: rgb(80, 80, 80);"></path><path class="link" marker-end="" d="M523,378.5, 703,338.5" style="stroke-width: 0.8; stroke-opacity: 0.63; stroke: rgb(80, 80, 80);"></path><path class="link" marker-end="" d="M523,378.5, 703,378.5" style="stroke-width: 0.8; stroke-opacity: 0.63; stroke: rgb(80, 80, 80);"></path><path class="link" marker-end="" d="M523,378.5, 703,418.5" style="stroke-width: 0.8; stroke-opacity: 0.63; stroke: rgb(80, 80, 80);"></path><path class="link" marker-end="" d="M523,378.5, 703,458.5" style="stroke-width: 0.8; stroke-opacity: 0.63; stroke: rgb(80, 80, 80);"></path><path class="link" marker-end="" d="M703,178.5, 883,318.5" style="stroke-width: 0.8; stroke-opacity: 0.63; stroke: rgb(80, 80, 80);"></path><path class="link" marker-end="" d="M703,218.5, 883,318.5" style="stroke-width: 0.8; stroke-opacity: 0.63; stroke: rgb(80, 80, 80);"></path><path class="link" marker-end="" d="M703,258.5, 883,318.5" style="stroke-width: 0.8; stroke-opacity: 0.63; stroke: rgb(80, 80, 80);"></path><path class="link" marker-end="" d="M703,298.5, 883,318.5" style="stroke-width: 0.8; stroke-opacity: 0.63; stroke: rgb(80, 80, 80);"></path><path class="link" marker-end="" d="M703,338.5, 883,318.5" style="stroke-width: 0.8; stroke-opacity: 0.63; stroke: rgb(80, 80, 80);"></path><path class="link" marker-end="" d="M703,378.5, 883,318.5" style="stroke-width: 0.8; stroke-opacity: 0.63; stroke: rgb(80, 80, 80);"></path><path class="link" marker-end="" d="M703,418.5, 883,318.5" style="stroke-width: 0.8; stroke-opacity: 0.63; stroke: rgb(80, 80, 80);"></path><path class="link" marker-end="" d="M703,458.5, 883,318.5" style="stroke-width: 0.8; stroke-opacity: 0.63; stroke: rgb(80, 80, 80);"></path><circle r="10" class="node" id="0_0" cx="523" cy="258.5" style="fill: rgb(255, 255, 255); stroke: rgb(51, 51, 51);"></circle><circle r="10" class="node" id="0_1" cx="523" cy="298.5" style="fill: rgb(255, 255, 255); stroke: rgb(51, 51, 51);"></circle><circle r="10" class="node" id="0_2" cx="523" cy="338.5" style="fill: rgb(255, 255, 255); stroke: rgb(51, 51, 51);"></circle><circle r="10" class="node" id="0_3" cx="523" cy="378.5" style="fill: rgb(255, 255, 255); stroke: rgb(51, 51, 51);"></circle><circle r="10" class="node" id="1_0" cx="703" cy="178.5" style="fill: rgb(255, 255, 255); stroke: rgb(51, 51, 51);"></circle><circle r="10" class="node" id="1_1" cx="703" cy="218.5" style="fill: rgb(255, 255, 255); stroke: rgb(51, 51, 51);"></circle><circle r="10" class="node" id="1_2" cx="703" cy="258.5" style="fill: rgb(255, 255, 255); stroke: rgb(51, 51, 51);"></circle><circle r="10" class="node" id="1_3" cx="703" cy="298.5" style="fill: rgb(255, 255, 255); stroke: rgb(51, 51, 51);"></circle><circle r="10" class="node" id="1_4" cx="703" cy="338.5" style="fill: rgb(255, 255, 255); stroke: rgb(51, 51, 51);"></circle><circle r="10" class="node" id="1_5" cx="703" cy="378.5" style="fill: rgb(255, 255, 255); stroke: rgb(51, 51, 51);"></circle><circle r="10" class="node" id="1_6" cx="703" cy="418.5" style="fill: rgb(255, 255, 255); stroke: rgb(51, 51, 51);"></circle><circle r="10" class="node" id="1_7" cx="703" cy="458.5" style="fill: rgb(255, 255, 255); stroke: rgb(51, 51, 51);"></circle><text class="text" dy=".35em" x="488" y="498.5" style="font-size: 12px;">Input Layer ∈ ℝ⁴</text><text class="text" dy=".35em" x="668" y="498.5" style="font-size: 12px;">Hidden Layer ∈ ℝ⁸</text><text class="text" dy=".35em" x="848" y="498.5" style="font-size: 12px;">Output Layer ∈ ℝ¹</text><circle r="10" class="node" id="2_0" cx="883" cy="318.5" style="fill: rgb(255, 255, 255); stroke: rgb(51, 51, 51);"></circle></g><defs><marker id="arrow" viewBox="0 -5 10 10" markerWidth="7" markerHeight="7" orient="auto" refX="40"><path d="M0,-5L10,0L0,5" style="stroke: rgb(80, 80, 80); fill: none;"></path></marker></defs></svg>